<?xml version="1.0" encoding="UTF-8"?>
<svg width="478px" height="478px" viewBox="0 0 478 478" version="1.1" xmlns="http://www.w3.org/2000/svg" xmlns:xlink="http://www.w3.org/1999/xlink">
    <!-- Generator: Sketch 61 (89581) - https://sketch.com -->
    <title>sheet</title>
    <desc>Created with Sketch.</desc>
    <g id="Page-1" stroke="none" stroke-width="1" fill="none" fill-rule="evenodd">
        <g id="sheet" fill="#1ab394" fill-rule="nonzero">
            <path d="M341.333,85.333 C369.61,85.333 392.533,108.256 392.533,136.533 L392.533,136.533 L392.533,426.666 C392.533,454.943 369.61,477.866 341.333,477.866 L341.333,477.866 L51.2,477.866 C22.923,477.866 0,454.943 0,426.666 L0,426.666 L0,136.533 C0,108.256 22.923,85.333 51.2,85.333 L51.2,85.333 Z" id="Shape"></path>
            <path d="M426.667,0 L119.467,0 C91.19,0 68.267,22.923 68.267,51.2 C68.267,60.626 75.908,68.267 85.334,68.267 C94.76,68.267 102.4,60.626 102.4,51.2 C102.4,41.774 110.041,34.133 119.467,34.133 L426.667,34.133 C436.093,34.133 443.734,41.774 443.734,51.2 L443.734,358.4 C443.734,367.826 436.093,375.467 426.667,375.467 C417.241,375.467 409.6,383.108 409.6,392.534 C409.6,401.96 417.241,409.601 426.667,409.601 C454.944,409.601 477.867,386.678 477.867,358.401 L477.867,51.2 C477.867,22.923 454.944,0 426.667,0 Z" id="Path"></path>
        </g>
    </g>
</svg>